<mxfile host="app.diagrams.net" modified="2022-02-16T03:13:26.132Z" agent="5.0 (Macintosh; Intel Mac OS X 10_15_7) AppleWebKit/537.36 (KHTML, like Gecko) Chrome/92.0.4515.159 Safari/537.36" etag="TBLFDmWf_8zMOJo5mwqK" version="16.5.6" type="github" pages="2">
  <diagram id="wzdsWw9jXHrM9GS0sqsX" name="第 1 页">
    <mxGraphModel dx="1588" dy="659" grid="1" gridSize="10" guides="1" tooltips="1" connect="1" arrows="1" fold="1" page="0" pageScale="1" pageWidth="827" pageHeight="1169" math="0" shadow="0">
      <root>
        <mxCell id="0" />
        <mxCell id="1" parent="0" />
        <mxCell id="fWwcOxU5g4pAKZFCgniP-1" value="开始" style="strokeWidth=2;html=1;shape=mxgraph.flowchart.start_1;whiteSpace=wrap;rounded=1;sketch=1;fontFamily=Comic Sans MS;fontColor=#46495D;fillColor=#B2C9AB;" vertex="1" parent="1">
          <mxGeometry x="-110" y="120" width="100" height="60" as="geometry" />
        </mxCell>
        <mxCell id="fWwcOxU5g4pAKZFCgniP-2" value="1. 输入所有捕捉参考点&lt;br&gt;2. 设定捕捉规则和捕捉精度&lt;br&gt;3. 返回步骤结果(可为空)" style="rounded=1;whiteSpace=wrap;html=1;absoluteArcSize=1;arcSize=14;strokeWidth=2;sketch=1;fontFamily=Comic Sans MS;fontColor=#46495D;fillColor=#B2C9AB;" vertex="1" parent="1">
          <mxGeometry x="-145" y="220" width="170" height="90" as="geometry" />
        </mxCell>
      </root>
    </mxGraphModel>
  </diagram>
  <diagram id="rsBDB1h3VEh9B0MV6QZG" name="bim-viewer">
    <mxGraphModel dx="2226" dy="1191" grid="1" gridSize="10" guides="1" tooltips="1" connect="1" arrows="1" fold="1" page="0" pageScale="1" pageWidth="827" pageHeight="1169" math="0" shadow="0">
      <root>
        <mxCell id="Tq8Bxf-71OLsYApR5Mtn-0" />
        <mxCell id="Tq8Bxf-71OLsYApR5Mtn-1" parent="Tq8Bxf-71OLsYApR5Mtn-0" />
        <mxCell id="Tq8Bxf-71OLsYApR5Mtn-15" style="edgeStyle=orthogonalEdgeStyle;rounded=0;orthogonalLoop=1;jettySize=auto;html=1;exitX=1;exitY=0.5;exitDx=0;exitDy=0;entryX=0;entryY=0.154;entryDx=0;entryDy=0;entryPerimeter=0;" edge="1" parent="Tq8Bxf-71OLsYApR5Mtn-1" source="Tq8Bxf-71OLsYApR5Mtn-2" target="Tq8Bxf-71OLsYApR5Mtn-5">
          <mxGeometry relative="1" as="geometry" />
        </mxCell>
        <mxCell id="Tq8Bxf-71OLsYApR5Mtn-28" style="edgeStyle=orthogonalEdgeStyle;rounded=0;orthogonalLoop=1;jettySize=auto;html=1;exitX=1;exitY=0.5;exitDx=0;exitDy=0;entryX=0;entryY=0.5;entryDx=0;entryDy=0;" edge="1" parent="Tq8Bxf-71OLsYApR5Mtn-1" source="Tq8Bxf-71OLsYApR5Mtn-2" target="Tq8Bxf-71OLsYApR5Mtn-27">
          <mxGeometry relative="1" as="geometry" />
        </mxCell>
        <mxCell id="Tq8Bxf-71OLsYApR5Mtn-31" style="edgeStyle=orthogonalEdgeStyle;rounded=0;orthogonalLoop=1;jettySize=auto;html=1;exitX=1;exitY=0.5;exitDx=0;exitDy=0;entryX=0;entryY=0.5;entryDx=0;entryDy=0;" edge="1" parent="Tq8Bxf-71OLsYApR5Mtn-1" source="Tq8Bxf-71OLsYApR5Mtn-2" target="Tq8Bxf-71OLsYApR5Mtn-30">
          <mxGeometry relative="1" as="geometry" />
        </mxCell>
        <mxCell id="Tq8Bxf-71OLsYApR5Mtn-2" value="&lt;ProjectsPanel /&gt;" style="swimlane;fontStyle=1;align=center;verticalAlign=top;childLayout=stackLayout;horizontal=1;startSize=26;horizontalStack=0;resizeParent=1;resizeParentMax=0;resizeLast=0;collapsible=1;marginBottom=0;rounded=1;sketch=1;fontFamily=Comic Sans MS;fontColor=#46495D;strokeColor=#788AA3;fillColor=#B2C9AB;" vertex="1" parent="Tq8Bxf-71OLsYApR5Mtn-1">
          <mxGeometry x="-430" y="-10" width="230" height="52" as="geometry" />
        </mxCell>
        <mxCell id="Tq8Bxf-71OLsYApR5Mtn-3" value="+ field: type" style="text;strokeColor=none;fillColor=none;align=left;verticalAlign=top;spacingLeft=4;spacingRight=4;overflow=hidden;rotatable=0;points=[[0,0.5],[1,0.5]];portConstraint=eastwest;rounded=1;sketch=1;fontFamily=Comic Sans MS;fontColor=#46495D;" vertex="1" parent="Tq8Bxf-71OLsYApR5Mtn-2">
          <mxGeometry y="26" width="230" height="26" as="geometry" />
        </mxCell>
        <mxCell id="Tq8Bxf-71OLsYApR5Mtn-14" style="edgeStyle=orthogonalEdgeStyle;rounded=0;orthogonalLoop=1;jettySize=auto;html=1;exitX=1;exitY=0.5;exitDx=0;exitDy=0;entryX=0;entryY=0.5;entryDx=0;entryDy=0;" edge="1" parent="Tq8Bxf-71OLsYApR5Mtn-1" source="Tq8Bxf-71OLsYApR5Mtn-4" target="Tq8Bxf-71OLsYApR5Mtn-8">
          <mxGeometry relative="1" as="geometry" />
        </mxCell>
        <mxCell id="Tq8Bxf-71OLsYApR5Mtn-4" value="&lt;Viewer3DContainer /&gt;" style="swimlane;fontStyle=1;align=center;verticalAlign=top;childLayout=stackLayout;horizontal=1;startSize=26;horizontalStack=0;resizeParent=1;resizeParentMax=0;resizeLast=0;collapsible=1;marginBottom=0;rounded=1;sketch=1;fontFamily=Comic Sans MS;fontColor=#46495D;strokeColor=#788AA3;fillColor=#B2C9AB;" vertex="1" parent="Tq8Bxf-71OLsYApR5Mtn-1">
          <mxGeometry x="-80" y="60" width="230" height="52" as="geometry" />
        </mxCell>
        <mxCell id="Tq8Bxf-71OLsYApR5Mtn-5" value="+ field: type" style="text;strokeColor=none;fillColor=none;align=left;verticalAlign=top;spacingLeft=4;spacingRight=4;overflow=hidden;rotatable=0;points=[[0,0.5],[1,0.5]];portConstraint=eastwest;rounded=1;sketch=1;fontFamily=Comic Sans MS;fontColor=#46495D;" vertex="1" parent="Tq8Bxf-71OLsYApR5Mtn-4">
          <mxGeometry y="26" width="230" height="26" as="geometry" />
        </mxCell>
        <mxCell id="Tq8Bxf-71OLsYApR5Mtn-8" value="View3D" style="swimlane;fontStyle=1;align=center;verticalAlign=top;childLayout=stackLayout;horizontal=1;startSize=26;horizontalStack=0;resizeParent=1;resizeParentMax=0;resizeLast=0;collapsible=1;marginBottom=0;rounded=1;sketch=1;fontFamily=Comic Sans MS;fontColor=#46495D;strokeColor=#788AA3;fillColor=#B2C9AB;" vertex="1" parent="Tq8Bxf-71OLsYApR5Mtn-1">
          <mxGeometry x="260" y="43" width="160" height="216" as="geometry" />
        </mxCell>
        <mxCell id="Tq8Bxf-71OLsYApR5Mtn-9" value="+ renderer" style="text;strokeColor=none;fillColor=none;align=left;verticalAlign=top;spacingLeft=4;spacingRight=4;overflow=hidden;rotatable=0;points=[[0,0.5],[1,0.5]];portConstraint=eastwest;rounded=1;sketch=1;fontFamily=Comic Sans MS;fontColor=#46495D;" vertex="1" parent="Tq8Bxf-71OLsYApR5Mtn-8">
          <mxGeometry y="26" width="160" height="26" as="geometry" />
        </mxCell>
        <mxCell id="Tq8Bxf-71OLsYApR5Mtn-16" value="+ css2dRenderer" style="text;strokeColor=none;fillColor=none;align=left;verticalAlign=top;spacingLeft=4;spacingRight=4;overflow=hidden;rotatable=0;points=[[0,0.5],[1,0.5]];portConstraint=eastwest;rounded=1;sketch=1;fontFamily=Comic Sans MS;fontColor=#46495D;" vertex="1" parent="Tq8Bxf-71OLsYApR5Mtn-8">
          <mxGeometry y="52" width="160" height="26" as="geometry" />
        </mxCell>
        <mxCell id="Tq8Bxf-71OLsYApR5Mtn-10" value="" style="line;strokeWidth=1;fillColor=none;align=left;verticalAlign=middle;spacingTop=-1;spacingLeft=3;spacingRight=3;rotatable=0;labelPosition=right;points=[];portConstraint=eastwest;rounded=1;sketch=1;fontFamily=Comic Sans MS;fontColor=#46495D;" vertex="1" parent="Tq8Bxf-71OLsYApR5Mtn-8">
          <mxGeometry y="78" width="160" height="8" as="geometry" />
        </mxCell>
        <mxCell id="Tq8Bxf-71OLsYApR5Mtn-11" value="+ animate()" style="text;strokeColor=none;fillColor=none;align=left;verticalAlign=top;spacingLeft=4;spacingRight=4;overflow=hidden;rotatable=0;points=[[0,0.5],[1,0.5]];portConstraint=eastwest;rounded=1;sketch=1;fontFamily=Comic Sans MS;fontColor=#46495D;" vertex="1" parent="Tq8Bxf-71OLsYApR5Mtn-8">
          <mxGeometry y="86" width="160" height="26" as="geometry" />
        </mxCell>
        <mxCell id="Tq8Bxf-71OLsYApR5Mtn-17" value="+ resize()" style="text;strokeColor=none;fillColor=none;align=left;verticalAlign=top;spacingLeft=4;spacingRight=4;overflow=hidden;rotatable=0;points=[[0,0.5],[1,0.5]];portConstraint=eastwest;rounded=1;sketch=1;fontFamily=Comic Sans MS;fontColor=#46495D;" vertex="1" parent="Tq8Bxf-71OLsYApR5Mtn-8">
          <mxGeometry y="112" width="160" height="26" as="geometry" />
        </mxCell>
        <mxCell id="Tq8Bxf-71OLsYApR5Mtn-18" value="+ watch() selectedObject…" style="text;strokeColor=none;fillColor=none;align=left;verticalAlign=top;spacingLeft=4;spacingRight=4;overflow=hidden;rotatable=0;points=[[0,0.5],[1,0.5]];portConstraint=eastwest;rounded=1;sketch=1;fontFamily=Comic Sans MS;fontColor=#46495D;" vertex="1" parent="Tq8Bxf-71OLsYApR5Mtn-8">
          <mxGeometry y="138" width="160" height="26" as="geometry" />
        </mxCell>
        <mxCell id="Tq8Bxf-71OLsYApR5Mtn-19" value="+ beforeDestroy()" style="text;strokeColor=none;fillColor=none;align=left;verticalAlign=top;spacingLeft=4;spacingRight=4;overflow=hidden;rotatable=0;points=[[0,0.5],[1,0.5]];portConstraint=eastwest;rounded=1;sketch=1;fontFamily=Comic Sans MS;fontColor=#46495D;" vertex="1" parent="Tq8Bxf-71OLsYApR5Mtn-8">
          <mxGeometry y="164" width="160" height="26" as="geometry" />
        </mxCell>
        <mxCell id="Tq8Bxf-71OLsYApR5Mtn-25" value="+ loadModel()" style="text;strokeColor=none;fillColor=none;align=left;verticalAlign=top;spacingLeft=4;spacingRight=4;overflow=hidden;rotatable=0;points=[[0,0.5],[1,0.5]];portConstraint=eastwest;rounded=1;sketch=1;fontFamily=Comic Sans MS;fontColor=#46495D;" vertex="1" parent="Tq8Bxf-71OLsYApR5Mtn-8">
          <mxGeometry y="190" width="160" height="26" as="geometry" />
        </mxCell>
        <mxCell id="Tq8Bxf-71OLsYApR5Mtn-20" value="CoordinateAxesViewport" style="swimlane;fontStyle=1;align=center;verticalAlign=top;childLayout=stackLayout;horizontal=1;startSize=26;horizontalStack=0;resizeParent=1;resizeParentMax=0;resizeLast=0;collapsible=1;marginBottom=0;rounded=1;sketch=1;fontFamily=Comic Sans MS;fontColor=#46495D;strokeColor=#788AA3;fillColor=#B2C9AB;" vertex="1" parent="Tq8Bxf-71OLsYApR5Mtn-1">
          <mxGeometry x="540" y="43" width="160" height="86" as="geometry" />
        </mxCell>
        <mxCell id="Tq8Bxf-71OLsYApR5Mtn-21" value="+ renderer" style="text;strokeColor=none;fillColor=none;align=left;verticalAlign=top;spacingLeft=4;spacingRight=4;overflow=hidden;rotatable=0;points=[[0,0.5],[1,0.5]];portConstraint=eastwest;rounded=1;sketch=1;fontFamily=Comic Sans MS;fontColor=#46495D;" vertex="1" parent="Tq8Bxf-71OLsYApR5Mtn-20">
          <mxGeometry y="26" width="160" height="26" as="geometry" />
        </mxCell>
        <mxCell id="Tq8Bxf-71OLsYApR5Mtn-22" value="" style="line;strokeWidth=1;fillColor=none;align=left;verticalAlign=middle;spacingTop=-1;spacingLeft=3;spacingRight=3;rotatable=0;labelPosition=right;points=[];portConstraint=eastwest;rounded=1;sketch=1;fontFamily=Comic Sans MS;fontColor=#46495D;" vertex="1" parent="Tq8Bxf-71OLsYApR5Mtn-20">
          <mxGeometry y="52" width="160" height="8" as="geometry" />
        </mxCell>
        <mxCell id="Tq8Bxf-71OLsYApR5Mtn-23" value="+ setHostRenderer()" style="text;strokeColor=none;fillColor=none;align=left;verticalAlign=top;spacingLeft=4;spacingRight=4;overflow=hidden;rotatable=0;points=[[0,0.5],[1,0.5]];portConstraint=eastwest;rounded=1;sketch=1;fontFamily=Comic Sans MS;fontColor=#46495D;" vertex="1" parent="Tq8Bxf-71OLsYApR5Mtn-20">
          <mxGeometry y="60" width="160" height="26" as="geometry" />
        </mxCell>
        <mxCell id="Tq8Bxf-71OLsYApR5Mtn-24" style="edgeStyle=orthogonalEdgeStyle;rounded=0;orthogonalLoop=1;jettySize=auto;html=1;exitX=1;exitY=0.5;exitDx=0;exitDy=0;entryX=0;entryY=0.5;entryDx=0;entryDy=0;" edge="1" parent="Tq8Bxf-71OLsYApR5Mtn-1" source="Tq8Bxf-71OLsYApR5Mtn-9" target="Tq8Bxf-71OLsYApR5Mtn-21">
          <mxGeometry relative="1" as="geometry" />
        </mxCell>
        <mxCell id="Tq8Bxf-71OLsYApR5Mtn-26" value="&lt;BimTree /&gt;" style="swimlane;fontStyle=1;align=center;verticalAlign=top;childLayout=stackLayout;horizontal=1;startSize=26;horizontalStack=0;resizeParent=1;resizeParentMax=0;resizeLast=0;collapsible=1;marginBottom=0;rounded=1;sketch=1;fontFamily=Comic Sans MS;fontColor=#46495D;strokeColor=#788AA3;fillColor=#B2C9AB;" vertex="1" parent="Tq8Bxf-71OLsYApR5Mtn-1">
          <mxGeometry x="-80" y="170" width="230" height="52" as="geometry" />
        </mxCell>
        <mxCell id="Tq8Bxf-71OLsYApR5Mtn-27" value="+ viewer" style="text;strokeColor=none;fillColor=none;align=left;verticalAlign=top;spacingLeft=4;spacingRight=4;overflow=hidden;rotatable=0;points=[[0,0.5],[1,0.5]];portConstraint=eastwest;rounded=1;sketch=1;fontFamily=Comic Sans MS;fontColor=#46495D;" vertex="1" parent="Tq8Bxf-71OLsYApR5Mtn-26">
          <mxGeometry y="26" width="230" height="26" as="geometry" />
        </mxCell>
        <mxCell id="Tq8Bxf-71OLsYApR5Mtn-29" value="&lt;PropertyPanel /&gt;" style="swimlane;fontStyle=1;align=center;verticalAlign=top;childLayout=stackLayout;horizontal=1;startSize=26;horizontalStack=0;resizeParent=1;resizeParentMax=0;resizeLast=0;collapsible=1;marginBottom=0;rounded=1;sketch=1;fontFamily=Comic Sans MS;fontColor=#46495D;strokeColor=#788AA3;fillColor=#B2C9AB;" vertex="1" parent="Tq8Bxf-71OLsYApR5Mtn-1">
          <mxGeometry x="-80" y="270" width="230" height="78" as="geometry" />
        </mxCell>
        <mxCell id="Tq8Bxf-71OLsYApR5Mtn-30" value="+ scene" style="text;strokeColor=none;fillColor=none;align=left;verticalAlign=top;spacingLeft=4;spacingRight=4;overflow=hidden;rotatable=0;points=[[0,0.5],[1,0.5]];portConstraint=eastwest;rounded=1;sketch=1;fontFamily=Comic Sans MS;fontColor=#46495D;" vertex="1" parent="Tq8Bxf-71OLsYApR5Mtn-29">
          <mxGeometry y="26" width="230" height="26" as="geometry" />
        </mxCell>
        <mxCell id="Tq8Bxf-71OLsYApR5Mtn-32" value="+ objId" style="text;strokeColor=none;fillColor=none;align=left;verticalAlign=top;spacingLeft=4;spacingRight=4;overflow=hidden;rotatable=0;points=[[0,0.5],[1,0.5]];portConstraint=eastwest;rounded=1;sketch=1;fontFamily=Comic Sans MS;fontColor=#46495D;" vertex="1" parent="Tq8Bxf-71OLsYApR5Mtn-29">
          <mxGeometry y="52" width="230" height="26" as="geometry" />
        </mxCell>
      </root>
    </mxGraphModel>
  </diagram>
</mxfile>
